# xmcd
# 
# Track frame offsets:
#     150
#     21773
#     59784
#     91409
#     130341
#     173453
#     195213
# 
# Disc length: 2915
# 
# Revision: 0
# Processed by: cddbd v1.5.2PL0 Copyright (c) Steve Scherf et al.
# Submitted via: BonkEnc v1.0.8
# 
DISCID=540b6107
DTITLE=Futrue Rock - Live in Wicker Park 
DYEAR=2009
DGENRE=Easy Listening
TTITLE0=Romantic Rights (live remix)
TTITLE1=sun lips (live remix)
TTITLE2=Pedal Metal
TTITLE3=Running in Spirals
TTITLE4=Cosmos
TTITLE5=Understand the Sky
TTITLE6=Blink
EXTD=RonSkele10
EXTT0=
EXTT1=
EXTT2=
EXTT3=
EXTT4=
EXTT5=
EXTT6=
PLAYORDER=
